<?xml version="1.0" encoding="UTF-8" standalone="no"?>
<svg xmlns:rdf="http://www.w3.org/1999/02/22-rdf-syntax-ns#" xmlns="http://www.w3.org/2000/svg" enable-background="new 0 0 553.743 91.238" xml:space="preserve" height="47.618" viewBox="0 0 278.8711 47.61805" width="278.87" version="1.1" y="0px" x="0px" xmlns:cc="http://creativecommons.org/ns#" xmlns:dc="http://purl.org/dc/elements/1.1/"><g transform="matrix(.5 0 0 .5 1.051 .94803)"><path fill="#fff" d="m0 45.628c0 25.188 20.42 45.61 45.612 45.61 25.188 0 45.608-20.422 45.608-45.61 0-25.19-20.42-45.61-45.608-45.61-25.192 0-45.612 20.42-45.612 45.61"/><path fill="#c8102e" d="m45.518 0.0019531 0.01953 0.037109c1.038 1.521 3.1203 2.4196 3.5703 2.5566-0.127 0.551-0.03233 1.6529 1.8887 3.0449 0.3 0.215 0.58823 0.38453 0.86523 0.51953 2.963 1.55 3.6188 0.34533 3.7578-0.13867 0.017-0.012 0.03673-0.024109 0.05273-0.037109 0.904 0.666 2.6633 2.0831 4.6113 4.2871 1.122 1.346 2.1806 2.5203 2.9746 3.6973-1.829 0.231-4.2571 0.44814-6.6621 0.61914-0.135-2.909-2.2326-4.3616-3.5566-4.8516-2.888-1.075-3.8389 2.3268-2.5859 4.7168-2.288-1.238-4.992-0.13248-5.373 3.4785 9.034-0.054 15.229-0.45474 22.092-1.4277-5.811-8.8711-10.397-12.096-16.287-14.421-1.175-0.465-5.1651-2.0301-5.3691-2.0801zm1.6504 0.035156c2.3 0.205 3.8575 0.81627 4.2285 0.94727 0.293 0.102 0.52597 0.25691 0.66797 0.37891 0.012-0.004 0.02344-0.00586 0.02344-0.00586 0.456 0.05 0.97891 0.14308 1.6289 0.33008 0.704 0.205 1.8807 0.63586 2.9297 1.1309 1.048 0.496 2.6043 1.6105 2.6133 2.2305-0.24 0.146-0.31444 0.19-1.0234 0 2.698 1.924 6.5685 5.5468 8.8535 8.2148 1.571-0.296 3.9141-0.63409 4.9961-0.99609-0.073 0.076-3.5697-2.5444-4.3477-4.0254-0.022-0.044-0.04653-0.19931-0.01953-0.32031 0.031-0.12 0.13086-0.21875 0.13086-0.21875s0.0477-0.11775 0.2207-0.21875c0.464-0.267 1.8393-0.40162 5.6562 2.2344-7.906-6.218-16.421-8.7763-23.646-9.4863-1.021-0.118-2.9121-0.19531-2.9121-0.19531zm29.898 12.596c0 1.726-5.9183 3.144-8.5293 3.625-0.4 0.071-0.81876 0.1448-1.2598 0.2168-0.012 0.002-0.02148 0.0039-0.02148 0.0039-0.01313 0.000358-0.0257 0.004-0.03711 0.0059l-0.04492 0.01953-0.002 0.002c7.2886 11.962 9.1632 21.785 9.7363 32.852 0.000034 0.000656-0.000034 0.0013 0 0.002 0.0014-0.000445 0.0025-0.0015 0.0039-0.002 3.4462-1.0847 4.0272-6.0153 2.2109-9.3789 2.271 0.795 3.3872-1.4193 3.2852-3.9023-0.173-4.231-3.7655-8.611-6.0645-6.25-1.318-3.675-3.1588-7.4695-5.0898-10.646 0.195-0.038 0.54438-0.11825 0.73438-0.15625 1.637-0.319 3.6098-1.1757 4.7988-1.5527 0.457 0.888 1.2205 3.0368 3.5645 4.0918 0.073 0.034 0.14294 0.05998 0.21094 0.08398 0.654 0.292 1.2815 0.27502 1.3555-0.70898 0.026-0.321-0.10164-0.98369-0.30664-1.5547-0.183-0.513-0.31453-0.8355-0.51953-1.1875-1.702-3.234-4.0254-5.5625-4.0254-5.5625zm-0.1582 36.725c-0.07699 0.0059-0.16459-0.0041-0.25195-0.002-0.0012 0.01309-0.0025 0.02426-0.0039 0.03711 0.07513-0.01144 0.1835-0.02385 0.25586-0.03516zm-0.25586 0.03516c-1.5442 0.23512-3.6759 0.4964-6.1895 0.75195 0.02919 0.0023 0.05467 0.0056 0.08398 0.0078 0.089 0.774 1.2314 1.5457 2.1934 1.7207 1.237 0.224 1.8475-0.57691 1.1445-1.5039 1.505 0.613 2.5669-0.11309 2.7559-0.87109 0.0076-0.03079 0.0077-0.06891 0.01172-0.10547zm-6.1895 0.75195c-1.1557-0.08991-2.217-0.20133-3.1602-0.33203 0.17562 0.20412 0.35976 0.39434 0.54297 0.58398 0.91825-0.08263 1.7782-0.16666 2.6172-0.25195zm-2.6172 0.25195c-0.24336 0.0219-0.48608 0.04285-0.73438 0.06445 2.1475 2.0039 4.1287 2.6352 5.3848 2.8828 0.356 0.07 0.51244 0.10512 1.1484 0.20312-0.001 0 0.17578 0.02739 0.17578 0.02539-0.837-0.297-1.6376-0.69038-2.4766-0.98438-0.655-0.23-0.86114-0.24345-0.99414-0.18945-0.8936-0.52322-1.7295-1.2003-2.5039-2.002zm-0.73438 0.06445c-0.61016-0.56938-1.2311-1.231-1.8555-2.0488 3.1023 0.47918 6.1814 0.70044 10.27 0.75977-2.0819-0.86052-3.646-4.5152-2.6953-8.2344-3.338 2.309-7.0978-2.4332-6.5488-6.8242 0.289-2.325 1.8157-4.3896 4.4727-3.4316-1.08-3.712-2.4336-7.227-4.0156-10.459-2.356 0.298-4.9435 0.54924-7.6875 0.74024 2.438 3.683 0.04548 7.1095-3.3535 6.5645-2.467-0.396-4.767-2.9825-4.127-6.0605-1.996 1.384-6.1013 0.83975-6.4883-3.5312-0.108 9.276-0.16344 21.14-0.14844 33.482 7.4319 0.07419 15.631-0.3874 22.178-0.95703zm-22.178 0.95703c-3.849 0.008-7.7489-0.13983-11.631-0.29883-8.245-0.342-13.853-0.81328-20.754-1.9883 3.538 1.195 4.5068 6.457 3.5938 9.377 3.39-1.309 7.6512 4.5518 6.1602 8.4688-0.688 1.807-2.4718 2.3107-4.3398 1.2227 1.008 3.422 2.3178 6.5474 3.8828 9.3164 2.396 0.331 5.0881 0.61489 8.0371 0.83789-2.367-2.913-0.4695-5.2997 2.6875-5.1367 2.709 0.138 6.2953 2.3927 5.5293 5.4707 2.44-1.101 6.5625-0.20344 7.0605 2.9766-0.121-6.841-0.2007-16.882-0.2207-28.736 0-0.519-0.0059-0.99276-0.0059-1.5098zm-32.385-2.2871c-0.000005-0.000661 0.000005-0.0013 0-0.002-3.505-0.008-3.9012 5.0182-2.4492 8.3672-1.927-1.458-2.681-0.10889-2.916 0.53711-1.15 3.172 2.4812 10.69 5.3262 9.252 1.205 3.456 2.7735 6.6263 4.6445 9.4473-1.988-0.402-3.6392-0.84831-4.9062-1.3203-0.038-0.06-3.2391-5.654-5.2871-6.334-0.187-0.063-0.48695-0.0435-0.50195-0.0625 0.127 0.192 1.308 2.2435 2.709 4.0605 1.929 2.503 4.1203 4.7499 4.1523 4.7559 0.061 0.012 0.14063 0.01553 0.39063 0.14453 1.498 0.766 3.7452 1.3574 7.6582 2.0664-7.2226-10.271-8.7421-19.827-8.8203-30.912zm62.977 0.04102c0.20423 0.08442 0.41265 0.15182 0.625 0.17969 0.14876 0.01926 0.33046 0.0082 0.50586 0.0039 0.0051-0.05727 0.01368-0.11313 0.01953-0.16211-0.41138-0.0026-0.75943-0.01581-1.1504-0.02148z"/><path fill="#ffd520" d="m45.518 0.0019531c-24.458 0-45.043 19.963-45.51 44.748l0.015625 0.04297c0.018 0.073 0.24803 0.52891 1.207 1.1289 0.962 0.604 2.3799 1.2465 4.2539 1.7285 2.318 0.595 4.7506 1.0807 7.0176 1.4707l0.04687 0.0059c6.901 1.175 12.51 1.6502 20.754 1.9922 3.883 0.16 7.7829 0.30592 11.631 0.29492-0.002-2.327-0.01616-15.575 0.08984-28.367 0.013-1.652 0.03564-3.3813 0.05664-5.1133 0.1-8.331 0.2745-16.815 0.4375-17.932zm45.693 44.611c0 0.203-0.80878 0.88311-1.6758 1.4121-0.021 0.01-0.04245 0.0212-0.06445 0.0332-1.175 0.642-2.844 1.2401-4.918 1.7891-2.125 0.558-4.7576 1.0658-7.6406 1.5098-2.895 0.442-6.112 0.77598-9.582 1.084-4.438 0.394-7.2316 0.56519-10.768 0.74219-3.759 0.157-7.665 0.23638-11.627 0.23438 0 0.501 0.002 1.0048 0.002 1.5098 0.006 3.563 0.0152 6.9612 0.0332 10.156 0.089 17.512 0.11462 17.502 0.64062 28.152 25.188 0 45.609-20.42 45.609-45.609-0.001 0.001-0.0098-0.65867-0.0098-1.0137z"/><path d="m45.494 0.0019531c-0.0049 0.00027989-0.0088 0.0016717-0.01367 0.0019531 0.01241-0.00054165 0.0247-0.0014235 0.03711-0.0019531-0.008 0.00001303-0.01544-0.00001664-0.02344 0zm0.02344 0c-4.551 2.567-8.53 13.751-10.736 27.92-3.338-4.546-4.397-6.711-5.707-10.529 4.253-8.9766 10.05-15.678 16.444-17.391zc-5.849 0.914-11.339 4.1746-16.098 8.5566-1.252 3.245-1.1843 5.1442-0.36133 8.8672-2.8572 6.0394-4.9969 13.265-6.1758 21.031 2.788 4.147 4.5114 6.5694 10.066 12.648 0.06291-8.1442 0.72499-16.043 1.8281-23.15-0.000605-0.000768-0.0013-0.0012-0.002-0.002 0.0015-0.01 0.0043-0.01934 0.0059-0.0293-0.0016 0.01025-0.0023 0.021-0.0039 0.03125 3.2791 4.1687 5.6798 6.8085 10.166 11.514 0-0.554 0.01306-3.4123 0.03906-7.3633 0.014-3.984 0.04256-9.1489 0.10156-14.17 0.098-8.532 0.26859-16.586 0.43359-17.934zm-0.03711 0.0019531c-3.667 0.0086028-6.917 0.39427-10.623 1.2832-5.303 1.273-7.206 3.0313-10.552 5.4453 6.272-3.7569 13.464-6.3785 21.115-6.7246-4.854 0.28896-7.288 1.3425-9.811 2.3652 3.083-1.1377 6.549-2.0636 9.871-2.3691zm-9.871 2.3691c-6.656 2.607-12.643 7.0756-17.494 12.641-1.326 4.149-1.3243 6.4625-0.6543 10.895 2.959-6.916 7.0895-12.906 11.979-17.381 1.505-2.611 2.4439-4.1723 6.1699-6.1543zm364.59 2.8613-0.62695 6.3184h0.70507c0.587-3.453 1.2915-4.3535 2.8555-4.3535h6.8125v19.379c0 2.117-0.70279 2.8633-3.0918 2.8633h-1.4492v0.72852h12.338v-0.72852h-1.4473c-2.386 0-3.0918-0.74628-3.0918-2.8633v-19.379h6.8125c1.564-1e-7 2.2665 0.90052 2.8555 4.3535h0.70508l-0.625-6.3184h-0.74609c-0.079 0.465-0.66585 0.58203-1.2148 0.58203h-18.834c-0.274 0-0.5482-0.037187-0.7832-0.11719-0.236-0.079-0.39069-0.23284-0.42969-0.46484h-0.74414zm-50.775 0.00391c-3.979 0-6.9258 2.4222-6.9258 5.6602 0 6.828 12.502 8.547 12.502 14.166 0 3.082-2.7689 4.6035-5.3809 4.6035-3.044 0-5.7661-2.028-6.5801-5.5v-0.002h-0.73437l0.8164 6.0039h0.65821c0.154-0.301 0.42539-0.50195 0.77539-0.50195 0.541 0 3.272 1.0762 5.418 1.0762 4.563 0 7.9375-2.8704 7.9375-6.6934 0-7.182-12.506-8.6631-12.506-14.203 0-2.186 1.7961-3.6699 4.3711-3.6699 2.692 0 5.1864 1.7955 6.2734 4.6035h0.6582l-0.6582-4.9648h-0.6211c-0.233 0.322-0.38621 0.40039-0.69921 0.40039-1.365 0-2.0287-0.97852-5.3047-0.97852zm157.89 0c-8.347 0-14.354 5.4862-14.354 13.283 0 7.329 6.4772 12.227 14.156 12.227 7.605 0 13.965-5.5244 13.965-13.441 0-7.053-6.3596-12.068-13.768-12.068zm-195.42 0.21484c-2.54 0-3.3246 0.039281-4.9336 0.11328-1.608 0.093-3.9956 0.25-4.9336 0.25v0.72656h0.85938c2.271 0 2.9336 0.70677 2.9336 3.1348v16.498c0 2.636-0.8199 3.2676-3.1289 3.2676h-0.66407v0.72656h11.074v-0.72656h-0.89453c-2.188 0-3.127-0.59112-3.127-2.9531v-6.6465h0.002c0.625 0.038 1.1322 0.07617 1.9902 0.07617 1.055 0 1.6842-0.03817 2.6582-0.07617 0.938 0.628 2.3055 1.769 4.0215 3.5l2.5898 2.5957c3.493 3.474 5.2496 4.9732 12.102 4.6582v-0.71289c-3.015-0.196-5.3989-1.6469-7.7109-3.9609l-3.0957-3.1016c-1.846-1.845-3.0227-2.9405-4.4707-4.0605 3.213-0.941 5.2168-3.4086 5.2168-6.3496 0-3.999-3.2603-6.959-10.488-6.959zm-155.05 0.36328v0.72852c1.369 0.039 2.3881 0.35347 3.2871 0.98047v19.291c0 1.803-0.78394 2.627-3.2109 2.627h-0.15625v0.72461h9.0527v-0.72461c-3.317 0-3.9414-0.59106-3.9414-3.4141v-16.818l20.219 21.25h1.0078v-21.877c-0.00001-1.529 0.62749-2.0391 3.5625-2.0391v-0.72852h-9.1348v0.72656c3.124 0.079 3.8262 0.51034 3.8262 2.9023v15.605l-18.387-19.234h-6.125zm45.559 0v0.72852c2.191 0.119 2.9355 0.70527 2.9355 2.8223v16.703c0 2.625-0.50954 3.254-2.9355 3.373v0.72656h9.5215v-0.72656c-2.7 0-3.3281-0.78266-3.3281-3.0977v-16.625c0-2.625 0.86112-3.1758 3.3281-3.1758v-0.72852h-9.5215zm23.426 0v0.72852c2.392 0 2.8628 0.58583 3.8418 3.0488l8.4922 21.158h1.9512l8.0645-20.846c0.934-2.422 1.9923-3.3613 4.0273-3.3613v-0.72852h-9.0781v0.72852c2.659 0 3.6367 0.47158 3.6367 1.6426 0 0.548-0.23406 1.3308-0.66406 2.4258l-6.1777 16.15-7.0391-17.521c-0.743-1.798 0.1178-2.6183 3.7168-2.6973v-0.72852h-10.771zm39.809 0v0.72852h0.86133c2.623 0 3.1309 0.93967 3.1309 3.1387v16.539c0 2.354-0.54964 3.2188-3.6816 3.2188h-1.0957v0.72852h20.811l0.62696-5.832h-0.70508c-0.978 3.388-1.7994 4.4492-4.5274 4.4492h-6.0508c-1.453 0-2.1211-0.35311-2.1211-2.1621v-8.377h6.6406c1.61 0 2.3579 0.31542 2.6719 3.1074h0.72851v-7.4355h-0.72851c-0.197 2.279-0.8653 2.9453-2.2793 2.9453h-7.0312v-9.666h8.2891c1.406-1e-7 2.3738 0.70688 2.8828 4.0469h0.70703l-0.3125-5.4297h-18.816zm110.22 0v0.72852c2.194 0.119 2.9394 0.70527 2.9394 2.8223v16.703c0 2.625-0.51245 3.254-2.9394 3.373v0.72656h9.5234v-0.72656c-2.7 0-3.3281-0.78266-3.3281-3.0977v-16.625c0-2.625 0.86012-3.1758 3.3281-3.1758v-0.72852h-9.5234zm60.002 0v0.72852c2.551 0.079 3.454 0.62644 5.377 3.6484l6.9082 10.898v5.5293c0 1.921-0.69485 2.8223-3.0898 2.8223h-0.73047v0.72656h10.748v-0.72656h-0.51367c-2.408 0-3.1562-0.82239-3.1562-2.9004v-5.8828l6.5352-11.018c1.095-1.845 2.2278-2.9017 4.8828-3.0977v-0.72852h-8.8535v0.72852c2.524 0 3.2687 0.66527 2.0117 2.8223l-5.5566 9.4102-6.2129-9.6816c-1.165-1.804-0.97308-2.5508 2.0449-2.5508v-0.72852h-10.395zm-321.76 0.00195v0.72656c2.663 0.039 3.3672 0.42859 3.3672 2.9336v11.418c0 5.593 3.8446 9.8555 11.309 9.8555 8.483 0 11.578-5.2037 11.578-10.053v-10.557c0-2.5 0.93854-3.5577 3.5605-3.5977v-0.72656h-9.1973v0.72852c3.245 0.157 3.8301 0.81922 3.8301 4.5742v9.1113c0 6.648-4.4951 8.4844-8.9121 8.4844-5.824 0-8.9121-3.1683-8.9121-8.4453v-10.871c0-2.267 0.93689-2.8555 3.0879-2.8555h0.35351v-0.72656h-10.064zm416.55 0v0.72461c2.74 0.04 2.9356 1.1765 2.9356 3.6875v15.363c0 3.182-0.42942 3.6926-2.8574 3.8516v0.72656h9.5254v-0.72656c-2.938 0-3.4102-0.82439-3.4102-3.0254v-8.6074h7.2539c1.881 0 2.7061 0.70733 2.7871 2.9863h0.65039v-6.8848h-0.65039c-0.12 1.691-0.82639 2.5176-2.2754 2.5176h-7.7656v-9.2344h7.4414c2.43 0 3.211 0.94566 3.25 3.2227h0.6543v-4.6016h-17.539zm-24.355 0.35938c6.464 0 11.088 5.1348 11.088 12.424 0 5.565-3.0583 11.207-9.4453 11.207-6.309 0-11.285-5.174-11.285-12.502 0-4.701 2.7416-11.129 9.6426-11.129zm-195.26 0.00391c6.016 0 7.6582 2.8198 7.6582 6.4668 0 4.703-2.8515 6.543-7.1875 6.543-0.898 0-1.4829 0.03888-2.4219-0.07813v-12.854c0.702-0.078 1.2092-0.078125 1.9512-0.078125zm-286.78 0.5783c-13.354 8.0182-22.528 22.66-23.032 39.162 0.963 0.605 2.3559 1.2635 4.2559 1.7285 0.342-12.442 5.125-24.021 12.623-32.629 1.591-3.788 2.9963-5.4587 6.1523-8.2617zm-6.801 19.148c-2.996 7.021-4.7252 14.95-4.9102 23.223 2.832 0.489 5.9864 0.92995 9.3184 1.252 0.064-4.056 0.40423-8.055 0.99023-11.918-3.257-5.466-4.2414-7.9456-5.3984-12.557zm187.13 12.463 0.73047 1.7773-14.77 40.234c-2.5929 7.0421-3.4876 7.9359-8.7578 8.0176h0.0371v1.5723h18.705v-1.5723h-1.2969c-4.463 0-6.5703-0.81005-6.5703-2.998 0-1.134 1.0521-3.5636 1.6211-5.1016l4.7051-12.721h16.793v0.002l5.4356 14.742c0.325 0.811 0.89257 2.0253 0.89257 3.3223 0 2.267-1.7031 2.7539-6.3281 2.7539h-2.1094v1.5723h22.285v0.0039h22.959v-1.5742h-1.877c-4.567 0-6.5234-1.2079-6.5234-6.0469v-13.629c1.305 0.083 2.3642 0.16406 4.1582 0.16406 2.203 0 3.5079-0.08106 5.5469-0.16406 1.957 1.293 4.8144 3.6326 8.4004 7.1816l5.334 5.3184c7.185 7.21 10.837 10.281 25.033 9.6328v-1.4531c-6.247-0.403-11.194-3.3932-15.98-8.1582l-6.3984-6.3789c-3.78-3.796-6.1929-6.0595-9.2109-8.4395 6.639-1.947 10.742-7.0567 10.742-13.139 0-8.271-6.6779-14.465-21.754-14.465-5.302 0-6.9197 0.08109-10.223 0.24609-3.311 0.155-8.259 0.47852-10.207 0.47852v1.5742h1.7832c4.707 0 6.0859 1.4603 6.0859 6.4883v34.1c0 5.4-1.7022 6.6895-6.4902 6.6895h-1.3496v-0.002c-4.058 0-5.7618-0.80856-7.3848-5.1016l-16.959-44.928h-7.0586zm199.1 0 0.73047 1.7773-14.768 40.234c-2.593 7.045-3.4847 7.9366-8.7617 8.0176v1.5723h18.744v-1.5723h-1.2969c-4.461 0-6.5723-0.81005-6.5723-2.998 0-1.134 1.055-3.5636 1.623-5.1016l4.707-12.721h16.793v0.002l5.4356 14.742c0.324 0.811 0.89258 2.0253 0.89258 3.3223 0 2.267-1.7031 2.7539-6.3281 2.7539h-2.1094v1.5723h22.316v-1.5723c-4.06 0-5.7648-0.80856-7.3848-5.1016l-16.97-44.926h-7.0606zm119.18 0.45312c-4.225 0-9.1801 0.08305-13.621 0.24805-4.4095 0.154-8.3554 0.31365-11.352 0.47461v1.4434h1.5566c4.785 0 6.168 1.2982 6.168 6.5762v34.926c0 4.694-2.0272 5.9102-6.4102 5.9102h-1.3809v1.5723h25.934c20.553 0 29.979-14.687 29.979-26.912 0-13.357-9.427-24.238-30.873-24.238zm-24.973 2.166h-0.0664v-1.4395c0.0193-0.001 0.047-0.0029 0.0664-0.0039v-0.05859h-0.92578v0.0625h-18.732v1.5742c6.479 0.162 7.9375 1.053 7.9375 5.998v32.26l-38.15-39.832h-12.717v1.5723c2.839 0.081 4.9475 0.72934 6.8145 2.0273v39.828c0 3.723-1.6224 5.4238-6.6524 5.4238h-0.32422v1.5723h18.793v-1.5723c-6.885 0-8.1797-1.214-8.1797-7.043v-34.732l41.951 43.941h2.0996v-45.229c0-3.161 1.2988-4.2148 7.3828-4.2148v-0.12305h0.70312v-0.01172zm-383.61-1.4551v1.4551c5.03 0.327 5.1932 1.7875 4.8672 7.1445l-1.9492 31.58c-0.404 7.387-1.1336 8.6875-7.0566 8.6875v1.5723h16.914v-1.5723c-3.651-0.163-6.7597-1.0553-6.5137-5.1973l2.2129-36.529h0.16406l20.688 43.297h1.8652l20.205-43.299h0.16211l2.3516 36.369c0.325 4.303-3.4058 5.3574-7.2188 5.3574v1.5723h20.807v-1.5723c-5.8775-0.000055-6.528-0.01897-7.0137-7.4688l-2.6-36.775c-0.163-2.761 1.3795-2.839 5.3555-3.166v-1.4551h-11.928l-19.473 40.908-19.555-40.908h-12.287zm170.82 0.01563v1.5723c5.256 0.16 7.1171 1.2973 11.078 7.5293l14.512 22.506v11.416c0 3.965-1.4748 5.8281-6.5488 5.8281h-1.5547v1.5723h22.326v-1.5723h-1.0547c-4.941 0-6.4805-1.6992-6.4805-5.9902v-12.145l13.443-22.748c2.262-3.805 4.6104-5.9925 10.109-6.3965v-0.002h0.74414c5.111 0 6.4082 1.785 6.4082 6.082v35.855c0 4.13-1.3773 5.3438-5.1113 5.3438h-2.6777v1.5723h36.221l6.248-11.854h-1.459c-5.111 7.094-6.5733 8.957-11.361 8.957h-11.924c-2.354 0-3.248-0.81005-3.248-2.998v-37.365c0-5.024 1.3803-5.5938 6.6543-5.5938h3v-1.5703h-23.494-0.39062-17.896v1.5723c5.184 0 6.7228 1.3751 4.1328 5.8281l-11.41 19.434-13.02-19.998c-2.441-3.723-2.0392-5.2617 4.3398-5.2617v-1.5723h-21.58zm-30.508 0.8457c12.559 0 15.982 5.8369 15.982 13.381 0 9.73-5.9519 13.543-15.004 13.543-1.878 0-3.1026 0.08389-5.0586-0.16211v-26.6h0.002c1.467-0.163 2.5271-0.16211 4.0781-0.16211zm264.21 0c11.373 0 17.14 2.8326 20.875 6.5566 4.795 4.776 6.5 11.416 6.5 17.406 0 8.338-3.7362 14.571-6.7422 17.486-5.034 5.018-9.5857 6.5566-20.471 6.5566-6.418 0-6.6621-1.1341-6.6621-4.4531v-43.229c0.975-0.081 3.169-0.32422 6.5-0.32422zm-427.6 4.214c-0.247 0.444-0.97828 1.0063-1.7383 1.4473 0.016 0.504 0.02344 1.0067 0.02344 1.5117 0.000767 0.49502-0.02896 0.97893-0.04297 1.4688 0.50572-0.42167 0.88916-0.77442 1.0625-0.9707-0.2909 0.645-0.54144 1.1177-1.082 1.6465-0.64539 15.164-8.3329 27.73-20.105 34.824l-0.32422 0.24609c5.788-3.561 13.107-9.5716 17.762-19.518 4.991-9.813 4.4453-20.656 4.4453-20.656zm-1.7773 5.1035c0.0095-0.22424 0.01309-0.45042 0.01953-0.67578-1.1945 0.99597-3.1224 2.391-4.9668 3.2754-0.0019 0.03523-0.0039 0.07027-0.0059 0.10547 1.3196-0.53268 1.7172-0.64395 2.8496-1.2793 0.402-0.225 1.4445-0.84992 1.6855-1.0449 0.16504-0.13336 0.29141-0.25707 0.41797-0.38086zm-4.9531 2.7051c-0.12182 0.04917-0.15225 0.05929-0.29297 0.11719-0.462 0.19-0.89409 0.30055-1.3711 0.43555 0.52887-0.1423 1.0967-0.38335 1.6699-0.6582 0.0033-0.06006 0.0086-0.11954 0.01172-0.17969 0.19553-0.17538 0.36458-0.37048 0.54492-0.63867-0.17223 0.12971-0.3521 0.23382-0.52734 0.35156 0.03761-0.82343 0.05985-1.6518 0.05859-2.4902 0-0.505-0.0065-1.0087-0.02148-1.5117-2.125 0.561-4.7536 1.0697-7.6406 1.5117 0.04 0.507 0.05859 1.0214 0.05859 1.5254 0.012 7.806-1.3166 14.9-3.7266 20.895 1.357 3.482 1.378 4.9387 0.75195 7.5547 6.0107-6.8076 9.8755-16.184 10.484-26.912zm122.79-7.2227 7.1387 18.779h-14.035l6.8965-18.779zm199.1 0 7.1406 18.779h-14.037l6.8965-18.779zm-339.04 5.2441c-4.439 0.394-7.2316 0.56519-10.768 0.74219 6.253 6.496 7.5768 8.0188 10.219 11.051 0.374-3.226 0.56845-6.6485 0.56445-10.229-0.002-0.512-0.0086-1.0545-0.01563-1.5645zm-10.768 0.742c-4.619 0.184-7.665 0.23742-11.627 0.23242-0.001 0.504 0.002 1.0097 0.002 1.5137 0.006 3.563 0.0162 6.9602 0.0332 10.156 7.313 6.927 7.3125 6.9266 10.354 9.9746 0.809-5.788 1.258-12.703 1.248-20.363-0.002-0.504-0.0028-1.0087-0.0098-1.5137zm28.473 0.33594h0.002-0.002zm-18.252 10.719c0.009-0.066-2.6264 13.698-5.1094 18.615 1.431 2.756 1.494 3.8552 0.91797 5.6602 4.428-3.358 8.0788-8.43 10.592-14.707-1.613-3.282-2.7104-5.0314-6.4004-9.5684zm-11.465 10.851c-1.553 11.105-4.3167 17.942-7.7227 18.09 0.286-0.012 0.73253-0.03964 1.0195-0.05664 0.362-0.025 0.80597-0.0628 1.168-0.0918 4.72-0.42 8.7827-4.0397 11.889-10.178-1.596-2.6-3.0505-4.2957-6.3535-7.7637z"/></g></svg>
